<svg width="65" height="65" viewBox="0 0 65 65" fill="none" xmlns="http://www.w3.org/2000/svg">
<path d="M21.7542 65C24.4241 65 26.5884 62.5748 26.5884 59.5833C26.5884 56.5918 24.4241 54.1666 21.7542 54.1666C19.0843 54.1666 16.9199 56.5918 16.9199 59.5833C16.9199 62.5748 19.0843 65 21.7542 65Z" fill="#EEBFC8"/>
<path d="M55.594 65C58.2639 65 60.4283 62.5748 60.4283 59.5833C60.4283 56.5918 58.2639 54.1666 55.594 54.1666C52.9241 54.1666 50.7597 56.5918 50.7597 59.5833C50.7597 62.5748 52.9241 65 55.594 65Z" fill="#EEBFC8"/>
<path d="M64.1748 9.6112C63.8352 9.14579 63.4074 8.77094 62.9225 8.51387C62.4375 8.2568 61.9075 8.12397 61.371 8.125H15.3926L14.4665 2.23776C14.3678 1.61066 14.075 1.0426 13.6396 0.633357C13.2042 0.224115 12.654 -0.000133794 12.0857 5.98884e-08H2.41713C1.77607 5.98884e-08 1.16126 0.285342 0.707961 0.793253C0.254661 1.30116 0 1.99004 0 2.70833C0 3.42663 0.254661 4.1155 0.707961 4.62341C1.16126 5.13132 1.77607 5.41667 2.41713 5.41667H10.0583L16.9562 49.2206C17.0549 49.8477 17.3477 50.4157 17.7831 50.825C18.2185 51.2342 18.7687 51.4585 19.337 51.4583H58.0111C58.6522 51.4583 59.267 51.173 59.7203 50.6651C60.1736 50.1572 60.4283 49.4683 60.4283 48.75C60.4283 48.0317 60.1736 47.3428 59.7203 46.8349C59.267 46.327 58.6522 46.0417 58.0111 46.0417H21.3644L20.5124 40.625H57.0201C57.8584 40.6238 58.6705 40.2981 59.3191 39.7031C59.9677 39.1081 60.4129 38.2803 60.5793 37.3598L64.9302 12.9848C65.035 12.3949 65.0216 11.7862 64.891 11.2028C64.7604 10.6194 64.5158 10.0758 64.1748 9.6112Z" fill="#EEBFC8"/>
</svg>
